<?xml version="1.0" standalone="no"?>
<!DOCTYPE svg PUBLIC "-//W3C//DTD SVG 20010904//EN"
 "http://www.w3.org/TR/2001/REC-SVG-20010904/DTD/svg10.dtd">
<svg version="1.0" xmlns="http://www.w3.org/2000/svg"
 width="68.000000pt" height="53.000000pt" viewBox="0 0 68.000000 53.000000"
 preserveAspectRatio="xMidYMid meet">

<g transform="translate(0.000000,53.000000) scale(0.100000,-0.100000)"
fill="#FFFFFF" stroke="none">
<path d="M256 448 c-25 -50 -36 -115 -17 -104 5 3 12 21 15 40 4 18 20 52 36
75 27 37 28 41 11 41 -13 0 -27 -16 -45 -52z"/>
<path d="M332 432 c-46 -66 -58 -102 -43 -129 10 -17 10 -17 11 2 1 31 34 98
68 137 28 31 32 48 12 48 -4 0 -25 -26 -48 -58z"/>
<path d="M190 465 c-8 -9 -10 -25 -5 -42 5 -18 9 -23 12 -13 3 8 8 27 13 43
10 29 0 36 -20 12z"/>
<path d="M418 423 c-53 -57 -78 -104 -77 -147 l1 -41 14 44 c13 41 47 94 87
134 11 11 15 23 10 28 -5 5 -20 -2 -35 -18z"/>
<path d="M123 407 c-47 -72 -56 -176 -18 -233 l18 -28 24 30 c36 44 83 127 83
147 0 10 -16 33 -35 50 -19 17 -35 36 -35 43 0 26 -16 22 -37 -9z"/>
<path d="M452 353 c-73 -94 -79 -139 -23 -200 36 -40 39 -42 54 -25 28 31 47
90 47 147 0 54 -21 115 -39 115 -5 0 -23 -17 -39 -37z"/>
<path d="M260 290 c0 -37 -30 -94 -73 -138 -35 -35 -39 -44 -27 -52 18 -12 58
31 95 104 26 52 32 91 15 101 -5 3 -10 -3 -10 -15z"/>
<path d="M316 225 c-13 -45 -33 -81 -68 -120 -24 -28 -28 -39 -19 -48 10 -9
17 -7 33 13 46 56 69 108 66 147 l-4 38 -8 -30z"/>
<path d="M370 185 c0 -22 -22 -70 -54 -117 -16 -24 -16 -28 -3 -28 31 0 84
122 66 151 -7 11 -9 9 -9 -6z"/>
<path d="M407 107 c-3 -23 -4 -44 -1 -47 9 -8 24 24 24 52 0 44 -17 41 -23 -5z"/>
</g>
</svg>
