<?xml version="1.0" standalone="no"?>
<!DOCTYPE svg PUBLIC "-//W3C//DTD SVG 20010904//EN"
 "http://www.w3.org/TR/2001/REC-SVG-20010904/DTD/svg10.dtd">
<svg version="1.0" xmlns="http://www.w3.org/2000/svg"
 width="626.000000pt" height="626.000000pt" viewBox="0 0 626.000000 626.000000"
 preserveAspectRatio="xMidYMid meet">

<g transform="translate(0.000000,626.000000) scale(0.100000,-0.100000)"
fill="#000000" stroke="none">
<path d="M2980 5154 c-192 -35 -336 -89 -467 -173 -622 -402 -715 -1263 -192
-1783 553 -551 1485 -400 1836 297 87 171 118 314 117 530 0 185 -18 273 -83
431 -110 263 -353 508 -608 614 -145 60 -251 82 -423 85 -85 2 -166 1 -180 -1z
m349 -279 c330 -77 585 -334 667 -671 23 -93 23 -295 0 -387 -74 -307 -299
-553 -592 -647 -342 -110 -714 -5 -945 267 -146 170 -214 358 -213 583 2 422
306 783 729 866 88 17 255 12 354 -11z"/>
<path d="M2114 2829 c-124 -81 -191 -135 -303 -243 -341 -333 -532 -740 -571
-1224 -14 -169 -2 -215 61 -248 42 -21 3616 -21 3658 0 64 34 76 89 60 279
-49 570 -356 1089 -832 1408 -65 43 -125 79 -133 79 -9 0 -34 -15 -57 -34 -48
-39 -173 -116 -187 -116 -26 0 -1 -19 81 -60 49 -24 128 -73 176 -107 386
-275 629 -684 687 -1156 l6 -47 -1628 2 -1627 3 3 35 c15 172 76 379 163 555
152 307 408 567 712 725 l74 38 -123 81 c-68 44 -127 81 -132 81 -5 0 -45 -23
-88 -51z"/>
</g>
</svg>
